<?xml version="1.0" encoding="UTF-8" standalone="no"?>
<!DOCTYPE svg PUBLIC "-//W3C//DTD SVG 1.1//EN"
 "http://www.w3.org/Graphics/SVG/1.1/DTD/svg11.dtd">
<!-- Generated by graphviz version 2.40.1 (20161225.0304)
 -->
<!-- Title: holst_network Pages: 1 -->
<svg width="835pt" height="409pt"
 viewBox="0.00 0.00 835.00 408.50" xmlns="http://www.w3.org/2000/svg" xmlns:xlink="http://www.w3.org/1999/xlink">
<g id="graph0" class="graph" transform="scale(1 1) rotate(0) translate(4 404.5)">
<title>holst_network</title>
<polygon fill="#ffffff" stroke="transparent" points="-4,4 -4,-404.5 831,-404.5 831,4 -4,4"/>
<!-- server1 -->
<g id="node1" class="node">
<title>server1</title>
<polygon fill="none" stroke="#000000" points="138,-400.5 0,-400.5 0,-346.5 138,-346.5 138,-400.5"/>
<image xlink:href="figure_server.png" width="114px" height="16px" preserveAspectRatio="xMinYMin meet" x="12" y="-392.5"/>
<text text-anchor="start" x="35.2852" y="-359.3" font-family="Menlo" font-size="14.00" fill="#000000">server 1</text>
</g>
<!-- flow_classifier -->
<g id="node6" class="node">
<title>flow_classifier</title>
<polygon fill="none" stroke="#000000" points="369,-368.5 174,-368.5 174,-306.5 369,-306.5 369,-368.5"/>
<image xlink:href="figure_flow_classifier.png" width="171px" height="24px" preserveAspectRatio="xMinYMin meet" x="186.5" y="-360.5"/>
<text text-anchor="start" x="208.7847" y="-319.3" font-family="Menlo" font-size="14.00" fill="#000000">Flow Classifier</text>
</g>
<!-- server1&#45;&#45;flow_classifier -->
<g id="edge&#45;&#45;server1&#45;flow_classifier" class="edge">
<title>server1&#45;&#45;flow_classifier</title>
<path fill="none" stroke="#000000" d="M138.1226,-361.2115C149.5802,-359.1746 161.6501,-357.0289 173.656,-354.8945"/>
</g>
<!-- server2 -->
<g id="node2" class="node">
<title>server2</title>
<polygon fill="none" stroke="#000000" points="138,-328.5 0,-328.5 0,-274.5 138,-274.5 138,-328.5"/>
<image xlink:href="figure_server.png" width="114px" height="16px" preserveAspectRatio="xMinYMin meet" x="12" y="-320.5"/>
<text text-anchor="start" x="35.2852" y="-287.3" font-family="Menlo" font-size="14.00" fill="#000000">server 2</text>
</g>
<!-- server2&#45;&#45;flow_classifier -->
<g id="edge&#45;&#45;server2&#45;flow_classifier" class="edge">
<title>server2&#45;&#45;flow_classifier</title>
<path fill="none" stroke="#000000" d="M138.1226,-313.7885C149.5802,-315.8254 161.6501,-317.9711 173.656,-320.1055"/>
</g>
<!-- server3 -->
<g id="node3" class="node">
<title>server3</title>
<polygon fill="none" stroke="#000000" points="340.5,-265.5 202.5,-265.5 202.5,-211.5 340.5,-211.5 340.5,-265.5"/>
<image xlink:href="figure_server.png" width="114px" height="16px" preserveAspectRatio="xMinYMin meet" x="214.5" y="-257.5"/>
<text text-anchor="start" x="237.7852" y="-224.3" font-family="Menlo" font-size="14.00" fill="#000000">server 3</text>
</g>
<!-- tor2 -->
<g id="node8" class="node">
<title>tor2</title>
<polygon fill="none" stroke="#000000" points="563,-279 405,-279 405,-198 563,-198 563,-279"/>
<image xlink:href="figure_tor_sw.png" width="134px" height="43px" preserveAspectRatio="xMinYMin meet" x="417" y="-270.5"/>
<text text-anchor="start" x="454.4995" y="-210.3" font-family="Menlo" font-size="14.00" fill="#000000">ToR SW2</text>
</g>
<!-- server3&#45;&#45;tor2 -->
<g id="edge&#45;&#45;server3&#45;tor2" class="edge">
<title>server3&#45;&#45;tor2</title>
<path fill="none" stroke="#000000" d="M340.7864,-238.5C361.2551,-238.5 383.8146,-238.5 404.8546,-238.5"/>
</g>
<!-- server4 -->
<g id="node4" class="node">
<title>server4</title>
<polygon fill="none" stroke="#000000" points="340.5,-166.5 202.5,-166.5 202.5,-112.5 340.5,-112.5 340.5,-166.5"/>
<image xlink:href="figure_server.png" width="114px" height="16px" preserveAspectRatio="xMinYMin meet" x="214.5" y="-158.5"/>
<text text-anchor="start" x="237.7852" y="-125.3" font-family="Menlo" font-size="14.00" fill="#000000">server 4</text>
</g>
<!-- tor3 -->
<g id="node9" class="node">
<title>tor3</title>
<polygon fill="none" stroke="#000000" points="563,-180 405,-180 405,-99 563,-99 563,-180"/>
<image xlink:href="figure_tor_sw.png" width="134px" height="43px" preserveAspectRatio="xMinYMin meet" x="417" y="-171.5"/>
<text text-anchor="start" x="454.4995" y="-111.3" font-family="Menlo" font-size="14.00" fill="#000000">ToR SW3</text>
</g>
<!-- server4&#45;&#45;tor3 -->
<g id="edge&#45;&#45;server4&#45;tor3" class="edge">
<title>server4&#45;&#45;tor3</title>
<path fill="none" stroke="#000000" d="M340.7864,-139.5C361.2551,-139.5 383.8146,-139.5 404.8546,-139.5"/>
</g>
<!-- server5 -->
<g id="node5" class="node">
<title>server5</title>
<polygon fill="none" stroke="#000000" points="340.5,-67.5 202.5,-67.5 202.5,-13.5 340.5,-13.5 340.5,-67.5"/>
<image xlink:href="figure_server.png" width="114px" height="16px" preserveAspectRatio="xMinYMin meet" x="214.5" y="-59.5"/>
<text text-anchor="start" x="237.7852" y="-26.3" font-family="Menlo" font-size="14.00" fill="#000000">server 5</text>
</g>
<!-- tor4 -->
<g id="node10" class="node">
<title>tor4</title>
<polygon fill="none" stroke="#000000" points="563,-81 405,-81 405,0 563,0 563,-81"/>
<image xlink:href="figure_tor_sw.png" width="134px" height="43px" preserveAspectRatio="xMinYMin meet" x="417" y="-72.5"/>
<text text-anchor="start" x="454.4995" y="-12.3" font-family="Menlo" font-size="14.00" fill="#000000">ToR SW4</text>
</g>
<!-- server5&#45;&#45;tor4 -->
<g id="edge&#45;&#45;server5&#45;tor4" class="edge">
<title>server5&#45;&#45;tor4</title>
<path fill="none" stroke="#000000" d="M340.7864,-40.5C361.2551,-40.5 383.8146,-40.5 404.8546,-40.5"/>
</g>
<!-- tor1 -->
<g id="node7" class="node">
<title>tor1</title>
<polygon fill="none" stroke="#000000" points="563,-378 405,-378 405,-297 563,-297 563,-378"/>
<image xlink:href="figure_tor_sw.png" width="134px" height="43px" preserveAspectRatio="xMinYMin meet" x="417" y="-369.5"/>
<text text-anchor="start" x="454.4995" y="-309.3" font-family="Menlo" font-size="14.00" fill="#000000">ToR SW1</text>
</g>
<!-- flow_classifier&#45;&#45;tor1 -->
<g id="edge&#45;&#45;flow_classifier&#45;tor1" class="edge">
<title>flow_classifier&#45;&#45;tor1</title>
<path fill="none" stroke="#000000" d="M369.0429,-337.5C381.0446,-337.5 393.1955,-337.5 404.8776,-337.5"/>
</g>
<!-- spine -->
<g id="node11" class="node">
<title>spine</title>
<polygon fill="none" stroke="#000000" points="820,-344 606,-344 606,-257 820,-257 820,-344"/>
<image xlink:href="figure_spine_sw.png" width="190px" height="49px" preserveAspectRatio="xMinYMin meet" x="618" y="-335.5"/>
<text text-anchor="start" x="679.2852" y="-269.3" font-family="Menlo" font-size="14.00" fill="#000000">Spine SW</text>
</g>
<!-- tor1&#45;&#45;spine -->
<g id="edge&#45;&#45;tor1&#45;spine" class="edge">
<title>tor1&#45;&#45;spine</title>
<path fill="none" stroke="#000000" d="M563.1295,-324.7149C576.9625,-322.4799 591.5592,-320.1214 605.9963,-317.7888"/>
</g>
<!-- mems -->
<g id="node12" class="node">
<title>mems</title>
<polygon fill="none" stroke="#000000" points="788.5,-238.5 637.5,-238.5 637.5,-136.5 788.5,-136.5 788.5,-238.5"/>
<image xlink:href="figure_mems_sw.png" width="127px" height="64px" preserveAspectRatio="xMinYMin meet" x="650" y="-230.5"/>
<text text-anchor="start" x="683.9995" y="-149.3" font-family="Menlo" font-size="14.00" fill="#000000">MEMS SW</text>
</g>
<!-- tor1&#45;&#45;mems -->
<g id="edge&#45;&#45;tor1&#45;mems" class="edge">
<title>tor1&#45;&#45;mems</title>
<path fill="none" stroke="#000000" d="M551.3,-296.7433C555.3455,-293.7328 559.2792,-290.6412 563,-287.5 581.2758,-272.0713 580.1234,-262.1875 599,-247.5 610.7384,-238.3666 624.0708,-229.9296 637.3771,-222.4435"/>
</g>
<!-- plzt -->
<g id="node13" class="node">
<title>plzt</title>
<polygon fill="none" stroke="#000000" points="827,-118 599,-118 599,-35 827,-35 827,-118"/>
<image xlink:href="figure_plzt_sw.png" width="204px" height="45px" preserveAspectRatio="xMinYMin meet" x="611" y="-109.5"/>
<text text-anchor="start" x="683.4995" y="-47.3" font-family="Menlo" font-size="14.00" fill="#000000">PLZT SW</text>
</g>
<!-- tor1&#45;&#45;plzt -->
<g id="edge&#45;&#45;tor1&#45;plzt" class="edge">
<title>tor1&#45;&#45;plzt</title>
<path fill="none" stroke="#000000" d="M555.1768,-296.9394C558.0279,-293.9628 560.6624,-290.8169 563,-287.5 604.9896,-227.921 552.8443,-183.9132 599,-127.5 601.7459,-124.1438 604.7586,-121.0007 607.9796,-118.058"/>
</g>
<!-- tor2&#45;&#45;spine -->
<g id="edge&#45;&#45;tor2&#45;spine" class="edge">
<title>tor2&#45;&#45;spine</title>
<path fill="none" stroke="#000000" d="M563.1295,-259.9237C576.9625,-263.6689 591.5592,-267.6208 605.9963,-271.5296"/>
</g>
<!-- tor2&#45;&#45;mems -->
<g id="edge&#45;&#45;tor2&#45;mems" class="edge">
<title>tor2&#45;&#45;mems</title>
<path fill="none" stroke="#000000" d="M563.1295,-220.8773C587.1756,-215.522 613.5296,-209.6528 637.3412,-204.3498"/>
</g>
<!-- tor2&#45;&#45;plzt -->
<g id="edge&#45;&#45;tor2&#45;plzt" class="edge">
<title>tor2&#45;&#45;plzt</title>
<path fill="none" stroke="#000000" d="M552.844,-197.929C556.4203,-194.9108 559.8367,-191.7633 563,-188.5 584.911,-165.8965 575.5239,-148.4734 599,-127.5 602.7189,-124.1776 606.6897,-121.0405 610.8372,-118.0822"/>
</g>
<!-- tor3&#45;&#45;spine -->
<g id="edge&#45;&#45;tor3&#45;spine" class="edge">
<title>tor3&#45;&#45;spine</title>
<path fill="none" stroke="#000000" d="M553.9434,-180.1949C557.1166,-182.865 560.1574,-185.6365 563,-188.5 584.6414,-210.3003 576.0904,-227.0365 599,-247.5 602.6625,-250.7715 606.5619,-253.8773 610.6281,-256.8213"/>
</g>
<!-- tor3&#45;&#45;mems -->
<g id="edge&#45;&#45;tor3&#45;mems" class="edge">
<title>tor3&#45;&#45;mems</title>
<path fill="none" stroke="#000000" d="M563.1295,-156.0861C587.1756,-161.1263 613.5296,-166.6503 637.3412,-171.6414"/>
</g>
<!-- tor3&#45;&#45;plzt -->
<g id="edge&#45;&#45;tor3&#45;plzt" class="edge">
<title>tor3&#45;&#45;plzt</title>
<path fill="none" stroke="#000000" d="M563.1295,-117.7308C574.6354,-114.5654 586.6698,-111.2546 598.7011,-107.9447"/>
</g>
<!-- tor4&#45;&#45;spine -->
<g id="edge&#45;&#45;tor4&#45;spine" class="edge">
<title>tor4&#45;&#45;spine</title>
<path fill="none" stroke="#000000" d="M556.1802,-81.2323C558.646,-83.8545 560.9375,-86.6098 563,-89.5 604.8368,-148.1246 553.7233,-191.4894 599,-247.5 601.607,-250.725 604.4549,-253.7633 607.4938,-256.6247"/>
</g>
<!-- tor4&#45;&#45;mems -->
<g id="edge&#45;&#45;tor4&#45;mems" class="edge">
<title>tor4&#45;&#45;mems</title>
<path fill="none" stroke="#000000" d="M551.9905,-81.1319C555.7814,-83.8703 559.478,-86.6686 563,-89.5 580.8817,-103.8758 580.6685,-112.7024 599,-126.5 610.8368,-135.4092 624.1475,-143.7791 637.3854,-151.2956"/>
</g>
<!-- tor4&#45;&#45;plzt -->
<g id="edge&#45;&#45;tor4&#45;plzt" class="edge">
<title>tor4&#45;&#45;plzt</title>
<path fill="none" stroke="#000000" d="M563.1295,-52.9396C574.6354,-54.7484 586.6698,-56.6402 598.7011,-58.5316"/>
</g>
</g>
</svg>
