<?xml version="1.0" encoding="UTF-8" standalone="no"?>
<!DOCTYPE svg PUBLIC "-//W3C//DTD SVG 1.1//EN"
 "http://www.w3.org/Graphics/SVG/1.1/DTD/svg11.dtd">
<!-- Generated by graphviz version 2.40.1 (20161225.0304)
 -->
<!-- Title: graph8 Pages: 1 -->
<svg width="847pt" height="442pt"
 viewBox="0.00 0.00 846.69 442.05" xmlns="http://www.w3.org/2000/svg" xmlns:xlink="http://www.w3.org/1999/xlink">
<g id="graph0" class="graph" transform="scale(1 1) rotate(0) translate(4 438.049)">
<title>graph8</title>
<polygon fill="#ffffff" stroke="transparent" points="-4,4 -4,-438.049 842.6881,-438.049 842.6881,4 -4,4"/>
<!-- server1 -->
<g id="node1" class="node">
<title>server1</title>
<polygon fill="none" stroke="#000000" points="93.6881,-434.049 2.6881,-434.049 2.6881,-352.049 93.6881,-352.049 93.6881,-434.049"/>
<image xlink:href="computer_server1.png" width="50px" height="44px" preserveAspectRatio="xMinYMin meet" x="23.6881" y="-426.049"/>
<text text-anchor="start" x="14.9732" y="-364.849" font-family="Menlo" font-size="14.00" fill="#000000">server 1</text>
</g>
<!-- flow_classify -->
<g id="node6" class="node">
<title>flow_classify</title>
<polygon fill="none" stroke="#000000" points="279.6881,-380.549 129.6881,-380.549 129.6881,-305.549 279.6881,-305.549 279.6881,-380.549"/>
<image xlink:href="souko_shiwake.png" width="50px" height="37px" preserveAspectRatio="xMinYMin meet" x="179.688" y="-372.049"/>
<text text-anchor="start" x="141.4728" y="-317.849" font-family="Menlo" font-size="14.00" fill="#000000">Flow Classifier</text>
</g>
<!-- server1&#45;&#45;flow_classify -->
<g id="edge1" class="edge">
<title>server1&#45;&#45;flow_classify</title>
<path fill="none" stroke="#000000" d="M93.8751,-378.4526C105.0625,-374.8783 117.3307,-370.9587 129.5,-367.0708"/>
<text text-anchor="start" x="42.1982" y="-355.8708" font-family="Times,serif" font-size="14.00" fill="#000000"> &#160;&#160;&#160;&#160;&#160;em2</text>
<text text-anchor="start" x="0" y="-341.8708" font-family="Times,serif" font-size="14.00" fill="#000000"> &#160;&#160;&#160;&#160;&#160;192.168.101.137 &#160;&#160;&#160;</text>
<text text-anchor="start" x="130.6251" y="-395.2526" font-family="Times,serif" font-size="14.00" fill="#000000"> &#160;&#160;&#160;&#160;&#160;p2p1</text>
<text text-anchor="start" x="93.8751" y="-381.2526" font-family="Times,serif" font-size="14.00" fill="#000000"> &#160;&#160;&#160;&#160;&#160;192.168.101.35 &#160;&#160;&#160;</text>
</g>
<!-- server2 -->
<g id="node2" class="node">
<title>server2</title>
<polygon fill="none" stroke="#000000" points="93.6881,-334.049 2.6881,-334.049 2.6881,-252.049 93.6881,-252.049 93.6881,-334.049"/>
<image xlink:href="computer_server1.png" width="50px" height="44px" preserveAspectRatio="xMinYMin meet" x="23.6881" y="-326.049"/>
<text text-anchor="start" x="14.9732" y="-264.849" font-family="Menlo" font-size="14.00" fill="#000000">server 2</text>
</g>
<!-- server2&#45;&#45;flow_classify -->
<g id="edge2" class="edge">
<title>server2&#45;&#45;flow_classify</title>
<path fill="none" stroke="#000000" d="M93.8751,-307.6455C105.0625,-311.2198 117.3307,-315.1393 129.5,-319.0273"/>
</g>
<!-- server3 -->
<g id="node3" class="node">
<title>server3</title>
<polygon fill="none" stroke="#000000" points="250.1881,-287.049 159.1881,-287.049 159.1881,-205.049 250.1881,-205.049 250.1881,-287.049"/>
<image xlink:href="computer_server1.png" width="50px" height="44px" preserveAspectRatio="xMinYMin meet" x="180.188" y="-279.049"/>
<text text-anchor="start" x="171.4732" y="-217.849" font-family="Menlo" font-size="14.00" fill="#000000">server 3</text>
</g>
<!-- tor2 -->
<g id="node8" class="node">
<title>tor2</title>
<polygon fill="none" stroke="#000000" points="398.6881,-274.049 315.6881,-274.049 315.6881,-208.049 398.6881,-208.049 398.6881,-274.049"/>
<image xlink:href="sushi_hamachi.png" width="50px" height="28px" preserveAspectRatio="xMinYMin meet" x="332.688" y="-266.049"/>
<text text-anchor="start" x="328.1876" y="-220.849" font-family="Menlo" font-size="14.00" fill="#000000">ToR SW2</text>
</g>
<!-- server3&#45;&#45;tor2 -->
<g id="edge&#45;&#45;server3&#45;tor2" class="edge">
<title>server3&#45;&#45;tor2</title>
<path fill="none" stroke="#000000" d="M250.4431,-244.5489C271.1483,-243.87 295.4453,-243.0734 315.6238,-242.4118"/>
</g>
<!-- server4 -->
<g id="node4" class="node">
<title>server4</title>
<polygon fill="none" stroke="#000000" points="250.1881,-187.049 159.1881,-187.049 159.1881,-105.049 250.1881,-105.049 250.1881,-187.049"/>
<image xlink:href="computer_server1.png" width="50px" height="44px" preserveAspectRatio="xMinYMin meet" x="180.188" y="-179.049"/>
<text text-anchor="start" x="171.4732" y="-117.849" font-family="Menlo" font-size="14.00" fill="#000000">server 4</text>
</g>
<!-- tor3 -->
<g id="node9" class="node">
<title>tor3</title>
<polygon fill="none" stroke="#000000" points="398.6881,-183.049 315.6881,-183.049 315.6881,-117.049 398.6881,-117.049 398.6881,-183.049"/>
<image xlink:href="sushi_hamachi.png" width="50px" height="28px" preserveAspectRatio="xMinYMin meet" x="332.688" y="-175.049"/>
<text text-anchor="start" x="328.1876" y="-129.849" font-family="Menlo" font-size="14.00" fill="#000000">ToR SW3</text>
</g>
<!-- server4&#45;&#45;tor3 -->
<g id="edge11" class="edge">
<title>server4&#45;&#45;tor3</title>
<path fill="none" stroke="#000000" d="M250.4431,-147.2492C271.1483,-147.7923 295.4453,-148.4296 315.6238,-148.9588"/>
</g>
<!-- server5 -->
<g id="node5" class="node">
<title>server5</title>
<polygon fill="none" stroke="#000000" points="250.1881,-87.049 159.1881,-87.049 159.1881,-5.049 250.1881,-5.049 250.1881,-87.049"/>
<image xlink:href="computer_server1.png" width="50px" height="44px" preserveAspectRatio="xMinYMin meet" x="180.188" y="-79.049"/>
<text text-anchor="start" x="171.4732" y="-17.849" font-family="Menlo" font-size="14.00" fill="#000000">server 5</text>
</g>
<!-- tor4 -->
<g id="node10" class="node">
<title>tor4</title>
<polygon fill="none" stroke="#000000" points="398.6881,-99.049 315.6881,-99.049 315.6881,-33.049 398.6881,-33.049 398.6881,-99.049"/>
<image xlink:href="sushi_hamachi.png" width="50px" height="28px" preserveAspectRatio="xMinYMin meet" x="332.688" y="-91.049"/>
<text text-anchor="start" x="328.1876" y="-45.849" font-family="Menlo" font-size="14.00" fill="#000000">ToR SW4</text>
</g>
<!-- server5&#45;&#45;tor4 -->
<g id="edge12" class="edge">
<title>server5&#45;&#45;tor4</title>
<path fill="none" stroke="#000000" d="M250.4431,-52.0497C271.1483,-54.7651 295.4453,-57.9516 315.6238,-60.598"/>
</g>
<!-- tor1 -->
<g id="node7" class="node">
<title>tor1</title>
<polygon fill="none" stroke="#000000" points="398.6881,-372.049 315.6881,-372.049 315.6881,-306.049 398.6881,-306.049 398.6881,-372.049"/>
<image xlink:href="sushi_hamachi.png" width="50px" height="28px" preserveAspectRatio="xMinYMin meet" x="332.688" y="-364.049"/>
<text text-anchor="start" x="328.1876" y="-318.849" font-family="Menlo" font-size="14.00" fill="#000000">ToR SW1</text>
</g>
<!-- flow_classify&#45;&#45;tor1 -->
<g id="edge3" class="edge">
<title>flow_classify&#45;&#45;tor1</title>
<path fill="none" stroke="#000000" d="M280.0445,-341.0725C292.201,-340.7536 304.3878,-340.434 315.3687,-340.1459"/>
</g>
<!-- ovs1 -->
<g id="node11" class="node">
<title>ovs1</title>
<polygon fill="none" stroke="#000000" points="627.6881,-396.049 561.6881,-396.049 561.6881,-330.049 627.6881,-330.049 627.6881,-396.049"/>
<image xlink:href="sushi_hamachi.png" width="42px" height="28px" preserveAspectRatio="xMinYMin meet" x="573.688" y="-388.049"/>
<text text-anchor="start" x="573.6163" y="-342.849" font-family="Menlo" font-size="14.00" fill="#000000">OVS 1</text>
</g>
<!-- tor1&#45;&#45;ovs1 -->
<g id="edge7" class="edge">
<title>tor1&#45;&#45;ovs1</title>
<path fill="none" stroke="#000000" stroke-dasharray="5,2" d="M398.8292,-343.257C445.1254,-347.9353 518.9696,-355.3975 561.5261,-359.6979"/>
</g>
<!-- spine -->
<g id="node14" class="node">
<title>spine</title>
<polygon fill="none" stroke="#000000" points="525.6881,-106.049 434.6881,-106.049 434.6881,-40.049 525.6881,-40.049 525.6881,-106.049"/>
<image xlink:href="sushi_hamachi.png" width="50px" height="28px" preserveAspectRatio="xMinYMin meet" x="455.688" y="-98.049"/>
<text text-anchor="start" x="446.9732" y="-52.849" font-family="Menlo" font-size="14.00" fill="#000000">Spine SW</text>
</g>
<!-- tor1&#45;&#45;spine -->
<g id="edge4" class="edge">
<title>tor1&#45;&#45;spine</title>
<path fill="none" stroke="#000000" d="M385.3392,-305.8484C390.3824,-298.6724 395.1501,-290.8784 398.6881,-283.049 430.1338,-213.4626 396.8625,-181.3841 434.6881,-115.049 436.4454,-111.9673 438.5057,-108.9821 440.7617,-106.1199"/>
</g>
<!-- mems -->
<g id="node15" class="node">
<title>mems</title>
<polygon fill="none" stroke="#000000" points="521.6881,-274.049 438.6881,-274.049 438.6881,-208.049 521.6881,-208.049 521.6881,-274.049"/>
<image xlink:href="sushi_hamachi.png" width="50px" height="28px" preserveAspectRatio="xMinYMin meet" x="455.688" y="-266.049"/>
<text text-anchor="start" x="451.1876" y="-220.849" font-family="Menlo" font-size="14.00" fill="#000000">MEMS SW</text>
</g>
<!-- tor1&#45;&#45;mems -->
<g id="edge5" class="edge">
<title>tor1&#45;&#45;mems</title>
<path fill="none" stroke="#000000" d="M398.8303,-305.8707C411.6539,-295.6535 425.768,-284.4081 438.5888,-274.1932"/>
</g>
<!-- plzt -->
<g id="node16" class="node">
<title>plzt</title>
<polygon fill="none" stroke="#000000" points="521.6881,-190.049 438.6881,-190.049 438.6881,-124.049 521.6881,-124.049 521.6881,-190.049"/>
<image xlink:href="sushi_hamachi.png" width="50px" height="28px" preserveAspectRatio="xMinYMin meet" x="455.688" y="-182.049"/>
<text text-anchor="start" x="451.1876" y="-136.849" font-family="Menlo" font-size="14.00" fill="#000000">PLZT SW</text>
</g>
<!-- tor1&#45;&#45;plzt -->
<g id="edge6" class="edge">
<title>tor1&#45;&#45;plzt</title>
<path fill="none" stroke="#000000" d="M383.7447,-305.8559C389.0237,-298.5543 394.2886,-290.7092 398.6881,-283.049 418.9169,-247.8272 411.249,-232.2211 434.6881,-199.049 436.7973,-196.0639 439.1489,-193.1309 441.6412,-190.2888"/>
</g>
<!-- ryu -->
<g id="node17" class="node">
<title>ryu</title>
<polygon fill="none" stroke="#000000" points="838.6881,-233.549 663.6881,-233.549 663.6881,-164.549 838.6881,-164.549 838.6881,-233.549"/>
<image xlink:href="computer_hub_loop_setsuzoku.png" width="50px" height="31px" preserveAspectRatio="xMinYMin meet" x="726.688" y="-225.049"/>
<text text-anchor="start" x="675.8297" y="-176.849" font-family="Menlo" font-size="14.00" fill="#000000">Ryu SDN Controller</text>
</g>
<!-- tor1&#45;&#45;ryu -->
<g id="edge8" class="edge">
<title>tor1&#45;&#45;ryu</title>
<path fill="none" stroke="#000000" stroke-dasharray="5,2" d="M398.7112,-366.9262C454.1362,-400.3263 553.8715,-446.8607 627.6881,-405.049 692.6336,-368.2622 727.1369,-282.2046 742.0172,-233.7637"/>
</g>
<!-- tor2&#45;&#45;spine -->
<g id="edge13" class="edge">
<title>tor2&#45;&#45;spine</title>
<path fill="none" stroke="#000000" d="M387.2157,-207.9527C391.2994,-202.7953 395.2589,-197.3987 398.6881,-192.049 419.075,-160.2444 412.3901,-145.5443 434.6881,-115.049 436.8455,-112.0986 439.2324,-109.191 441.7498,-106.3669"/>
</g>
<!-- tor2&#45;&#45;mems -->
<g id="edge14" class="edge">
<title>tor2&#45;&#45;mems</title>
<path fill="none" stroke="#000000" d="M398.8303,-241.049C411.6539,-241.049 425.768,-241.049 438.5888,-241.049"/>
</g>
<!-- tor2&#45;&#45;plzt -->
<g id="edge15" class="edge">
<title>tor2&#45;&#45;plzt</title>
<path fill="none" stroke="#000000" d="M398.8303,-212.6105C411.6539,-203.8528 425.768,-194.214 438.5888,-185.4583"/>
</g>
<!-- tor2&#45;&#45;ryu -->
<g id="edge16" class="edge">
<title>tor2&#45;&#45;ryu</title>
<path fill="none" stroke="#000000" stroke-dasharray="5,2" d="M399.069,-268.6076C410.201,-274.5473 422.524,-279.9649 434.6881,-283.049 517.8349,-304.1307 545.7071,-308.2869 627.6881,-283.049 659.4099,-273.2834 690.2849,-252.2834 713.2295,-233.7248"/>
</g>
<!-- tor3&#45;&#45;spine -->
<g id="edge17" class="edge">
<title>tor3&#45;&#45;spine</title>
<path fill="none" stroke="#000000" d="M398.8303,-123.9803C410.2601,-116.8251 422.715,-109.0281 434.3656,-101.7347"/>
</g>
<!-- tor3&#45;&#45;mems -->
<g id="edge18" class="edge">
<title>tor3&#45;&#45;mems</title>
<path fill="none" stroke="#000000" d="M398.8303,-180.8575C411.6539,-190.3449 425.768,-200.787 438.5888,-210.2723"/>
</g>
<!-- tor3&#45;&#45;plzt -->
<g id="edge19" class="edge">
<title>tor3&#45;&#45;plzt</title>
<path fill="none" stroke="#000000" d="M398.8303,-152.4189C411.6539,-153.1487 425.768,-153.952 438.5888,-154.6816"/>
</g>
<!-- tor3&#45;&#45;ryu -->
<g id="edge20" class="edge">
<title>tor3&#45;&#45;ryu</title>
<path fill="none" stroke="#000000" stroke-dasharray="5,2" d="M391.7839,-117.0163C394.2424,-114.0843 396.579,-111.0772 398.6881,-108.049 420.2794,-77.0494 402.8164,-51.331 434.6881,-31.049 468.8095,-9.3354 486.5876,-20.7096 525.6881,-31.049 607.3397,-52.6404 681.6154,-121.772 721.1956,-164.3298"/>
</g>
<!-- tor4&#45;&#45;spine -->
<g id="edge21" class="edge">
<title>tor4&#45;&#45;spine</title>
<path fill="none" stroke="#000000" d="M398.8303,-68.4189C410.2601,-69.0694 422.715,-69.7782 434.3656,-70.4412"/>
</g>
<!-- tor4&#45;&#45;mems -->
<g id="edge22" class="edge">
<title>tor4&#45;&#45;mems</title>
<path fill="none" stroke="#000000" d="M392.3902,-99.4379C394.6532,-102.2456 396.7837,-105.13 398.6881,-108.049 422.4534,-144.4765 410.0919,-163.1773 434.6881,-199.049 436.755,-202.0635 439.0756,-205.0182 441.5458,-207.8756"/>
</g>
<!-- tor4&#45;&#45;plzt -->
<g id="edge23" class="edge">
<title>tor4&#45;&#45;plzt</title>
<path fill="none" stroke="#000000" d="M398.8303,-96.8575C411.6539,-106.3449 425.768,-116.787 438.5888,-126.2723"/>
</g>
<!-- tor4&#45;&#45;ryu -->
<g id="edge24" class="edge">
<title>tor4&#45;&#45;ryu</title>
<path fill="none" stroke="#000000" stroke-dasharray="5,2" d="M397.9853,-32.9109C409.2326,-25.5943 421.8815,-18.8848 434.6881,-15.049 517.6594,9.8021 555.3116,5.5269 627.6881,-42.049 674.924,-73.0991 712.0762,-128.2583 732.8356,-164.2372"/>
</g>
<!-- ovs1&#45;&#45;ryu -->
<g id="edge9" class="edge">
<title>ovs1&#45;&#45;ryu</title>
<path fill="none" stroke="#000000" stroke-dasharray="5,2" d="M626.3582,-329.8612C653.0637,-301.8759 691.1497,-261.9647 718.2166,-233.6007"/>
</g>
<!-- ovs2 -->
<g id="node12" class="node">
<title>ovs2</title>
<polygon fill="none" stroke="#000000" points="627.6881,-274.049 561.6881,-274.049 561.6881,-208.049 627.6881,-208.049 627.6881,-274.049"/>
<image xlink:href="sushi_hamachi.png" width="42px" height="28px" preserveAspectRatio="xMinYMin meet" x="573.688" y="-266.049"/>
<text text-anchor="start" x="573.6163" y="-220.849" font-family="Menlo" font-size="14.00" fill="#000000">OVS 2</text>
</g>
<!-- ovs2&#45;&#45;ryu -->
<g id="edge27" class="edge">
<title>ovs2&#45;&#45;ryu</title>
<path fill="none" stroke="#000000" stroke-dasharray="5,2" d="M627.8777,-232.1419C638.555,-229.2765 650.9302,-225.9553 663.6373,-222.5451"/>
</g>
<!-- ovs3 -->
<g id="node13" class="node">
<title>ovs3</title>
<polygon fill="none" stroke="#000000" points="627.6881,-190.049 561.6881,-190.049 561.6881,-124.049 627.6881,-124.049 627.6881,-190.049"/>
<image xlink:href="sushi_hamachi.png" width="42px" height="28px" preserveAspectRatio="xMinYMin meet" x="573.688" y="-182.049"/>
<text text-anchor="start" x="573.6163" y="-136.849" font-family="Menlo" font-size="14.00" fill="#000000">OVS 3</text>
</g>
<!-- ovs3&#45;&#45;ryu -->
<g id="edge29" class="edge">
<title>ovs3&#45;&#45;ryu</title>
<path fill="none" stroke="#000000" stroke-dasharray="5,2" d="M627.8777,-165.9562C638.555,-168.8216 650.9302,-172.1428 663.6373,-175.553"/>
</g>
<!-- spine&#45;&#45;ryu -->
<g id="edge25" class="edge">
<title>spine&#45;&#45;ryu</title>
<path fill="none" stroke="#000000" stroke-dasharray="5,2" d="M525.7404,-82.0489C555.5982,-88.8977 595.0061,-99.7689 627.6881,-115.049 655.9934,-128.2829 685.0147,-147.6695 707.8067,-164.4845"/>
</g>
<!-- mems&#45;&#45;ovs2 -->
<g id="edge26" class="edge">
<title>mems&#45;&#45;ovs2</title>
<path fill="none" stroke="#000000" stroke-dasharray="5,2" d="M521.8491,-241.049C534.8933,-241.049 549.1063,-241.049 561.4859,-241.049"/>
</g>
<!-- plzt&#45;&#45;ovs3 -->
<g id="edge28" class="edge">
<title>plzt&#45;&#45;ovs3</title>
<path fill="none" stroke="#000000" stroke-dasharray="5,2" d="M521.8491,-157.049C534.8933,-157.049 549.1063,-157.049 561.4859,-157.049"/>
</g>
</g>
</svg>
