<?xml version="1.0" encoding="UTF-8" standalone="no"?>
<!DOCTYPE svg PUBLIC "-//W3C//DTD SVG 1.1//EN"
 "http://www.w3.org/Graphics/SVG/1.1/DTD/svg11.dtd">
<!-- Generated by graphviz version 2.40.1 (20161225.0304)
 -->
<!-- Title: graph8 Pages: 1 -->
<svg width="531pt" height="437pt"
 viewBox="0.00 0.00 531.00 437.00" xmlns="http://www.w3.org/2000/svg" xmlns:xlink="http://www.w3.org/1999/xlink">
<g id="graph0" class="graph" transform="scale(1 1) rotate(0) translate(4 433)">
<title>graph8</title>
<polygon fill="#ffffff" stroke="transparent" points="-4,4 -4,-433 527,-433 527,4 -4,4"/>
<!-- server1 -->
<g id="node1" class="node">
<title>server1</title>
<polygon fill="none" stroke="#000000" points="91,-429 0,-429 0,-347 91,-347 91,-429"/>
<image xlink:href="computer_server1.png" width="50px" height="44px" preserveAspectRatio="xMinYMin meet" x="21" y="-421"/>
<text text-anchor="start" x="12.2852" y="-359.8" font-family="Menlo" font-size="14.00" fill="#000000">server 1</text>
</g>
<!-- flow_classifier -->
<g id="node6" class="node">
<title>flow_classifier</title>
<polygon fill="none" stroke="#000000" points="277,-375.5 127,-375.5 127,-300.5 277,-300.5 277,-375.5"/>
<image xlink:href="souko_shiwake.png" width="50px" height="37px" preserveAspectRatio="xMinYMin meet" x="177" y="-367"/>
<text text-anchor="start" x="138.7847" y="-312.8" font-family="Menlo" font-size="14.00" fill="#000000">Flow Classifier</text>
</g>
<!-- server1&#45;&#45;flow_classifier -->
<g id="edge&#45;&#45;server1&#45;flow_classifier" class="edge">
<title>server1&#45;&#45;flow_classifier</title>
<path fill="none" stroke="#000000" d="M91.187,-373.4035C102.3744,-369.8293 114.6426,-365.9097 126.8119,-362.0218"/>
</g>
<!-- server2 -->
<g id="node2" class="node">
<title>server2</title>
<polygon fill="none" stroke="#000000" points="91,-329 0,-329 0,-247 91,-247 91,-329"/>
<image xlink:href="computer_server1.png" width="50px" height="44px" preserveAspectRatio="xMinYMin meet" x="21" y="-321"/>
<text text-anchor="start" x="12.2852" y="-259.8" font-family="Menlo" font-size="14.00" fill="#000000">server 2</text>
</g>
<!-- server2&#45;&#45;flow_classifier -->
<g id="edge&#45;&#45;server2&#45;flow_classifier" class="edge">
<title>server2&#45;&#45;flow_classifier</title>
<path fill="none" stroke="#000000" d="M91.187,-302.5965C102.3744,-306.1707 114.6426,-310.0903 126.8119,-313.9782"/>
</g>
<!-- server3 -->
<g id="node3" class="node">
<title>server3</title>
<polygon fill="none" stroke="#000000" points="247.5,-282 156.5,-282 156.5,-200 247.5,-200 247.5,-282"/>
<image xlink:href="computer_server1.png" width="50px" height="44px" preserveAspectRatio="xMinYMin meet" x="177.5" y="-274"/>
<text text-anchor="start" x="168.7852" y="-212.8" font-family="Menlo" font-size="14.00" fill="#000000">server 3</text>
</g>
<!-- tor2 -->
<g id="node8" class="node">
<title>tor2</title>
<polygon fill="none" stroke="#000000" points="396,-266 313,-266 313,-200 396,-200 396,-266"/>
<image xlink:href="sushi_hamachi.png" width="50px" height="28px" preserveAspectRatio="xMinYMin meet" x="330" y="-258"/>
<text text-anchor="start" x="325.4995" y="-212.8" font-family="Menlo" font-size="14.00" fill="#000000">ToR SW2</text>
</g>
<!-- server3&#45;&#45;tor2 -->
<g id="edge&#45;&#45;server3&#45;tor2" class="edge">
<title>server3&#45;&#45;tor2</title>
<path fill="none" stroke="#000000" d="M247.755,-238.5997C268.4603,-237.5136 292.7573,-236.239 312.9358,-235.1804"/>
</g>
<!-- server4 -->
<g id="node4" class="node">
<title>server4</title>
<polygon fill="none" stroke="#000000" points="247.5,-182 156.5,-182 156.5,-100 247.5,-100 247.5,-182"/>
<image xlink:href="computer_server1.png" width="50px" height="44px" preserveAspectRatio="xMinYMin meet" x="177.5" y="-174"/>
<text text-anchor="start" x="168.7852" y="-112.8" font-family="Menlo" font-size="14.00" fill="#000000">server 4</text>
</g>
<!-- tor3 -->
<g id="node9" class="node">
<title>tor3</title>
<polygon fill="none" stroke="#000000" points="396,-182 313,-182 313,-116 396,-116 396,-182"/>
<image xlink:href="sushi_hamachi.png" width="50px" height="28px" preserveAspectRatio="xMinYMin meet" x="330" y="-174"/>
<text text-anchor="start" x="325.4995" y="-128.8" font-family="Menlo" font-size="14.00" fill="#000000">ToR SW3</text>
</g>
<!-- server4&#45;&#45;tor3 -->
<g id="edge&#45;&#45;server4&#45;tor3" class="edge">
<title>server4&#45;&#45;tor3</title>
<path fill="none" stroke="#000000" d="M247.755,-143.4003C268.4603,-144.4864 292.7573,-145.761 312.9358,-146.8196"/>
</g>
<!-- server5 -->
<g id="node5" class="node">
<title>server5</title>
<polygon fill="none" stroke="#000000" points="247.5,-82 156.5,-82 156.5,0 247.5,0 247.5,-82"/>
<image xlink:href="computer_server1.png" width="50px" height="44px" preserveAspectRatio="xMinYMin meet" x="177.5" y="-74"/>
<text text-anchor="start" x="168.7852" y="-12.8" font-family="Menlo" font-size="14.00" fill="#000000">server 5</text>
</g>
<!-- tor4 -->
<g id="node10" class="node">
<title>tor4</title>
<polygon fill="none" stroke="#000000" points="396,-98 313,-98 313,-32 396,-32 396,-98"/>
<image xlink:href="sushi_hamachi.png" width="50px" height="28px" preserveAspectRatio="xMinYMin meet" x="330" y="-90"/>
<text text-anchor="start" x="325.4995" y="-44.8" font-family="Menlo" font-size="14.00" fill="#000000">ToR SW4</text>
</g>
<!-- server5&#45;&#45;tor4 -->
<g id="edge&#45;&#45;server5&#45;tor4" class="edge">
<title>server5&#45;&#45;tor4</title>
<path fill="none" stroke="#000000" d="M247.755,-48.2008C268.4603,-51.4593 292.7573,-55.2831 312.9358,-58.4587"/>
</g>
<!-- tor1 -->
<g id="node7" class="node">
<title>tor1</title>
<polygon fill="none" stroke="#000000" points="396,-350 313,-350 313,-284 396,-284 396,-350"/>
<image xlink:href="sushi_hamachi.png" width="50px" height="28px" preserveAspectRatio="xMinYMin meet" x="330" y="-342"/>
<text text-anchor="start" x="325.4995" y="-296.8" font-family="Menlo" font-size="14.00" fill="#000000">ToR SW1</text>
</g>
<!-- flow_classifier&#45;&#45;tor1 -->
<g id="edge&#45;&#45;flow_classifier&#45;tor1" class="edge">
<title>flow_classifier&#45;&#45;tor1</title>
<path fill="none" stroke="#000000" d="M277.3565,-327.623C289.513,-325.949 301.6997,-324.2709 312.6806,-322.7587"/>
</g>
<!-- spine -->
<g id="node11" class="node">
<title>spine</title>
<polygon fill="none" stroke="#000000" points="523,-308 432,-308 432,-242 523,-242 523,-308"/>
<image xlink:href="sushi_hamachi.png" width="50px" height="28px" preserveAspectRatio="xMinYMin meet" x="453" y="-300"/>
<text text-anchor="start" x="444.2852" y="-254.8" font-family="Menlo" font-size="14.00" fill="#000000">Spine SW</text>
</g>
<!-- tor1&#45;&#45;spine -->
<g id="edge&#45;&#45;tor1&#45;spine" class="edge">
<title>tor1&#45;&#45;spine</title>
<path fill="none" stroke="#000000" d="M396.1422,-302.7807C407.572,-298.8779 420.0269,-294.625 431.6775,-290.6467"/>
</g>
<!-- mems -->
<g id="node12" class="node">
<title>mems</title>
<polygon fill="none" stroke="#000000" points="519,-224 436,-224 436,-158 519,-158 519,-224"/>
<image xlink:href="sushi_hamachi.png" width="50px" height="28px" preserveAspectRatio="xMinYMin meet" x="453" y="-216"/>
<text text-anchor="start" x="448.4995" y="-170.8" font-family="Menlo" font-size="14.00" fill="#000000">MEMS SW</text>
</g>
<!-- tor1&#45;&#45;mems -->
<g id="edge&#45;&#45;tor1&#45;mems" class="edge">
<title>tor1&#45;&#45;mems</title>
<path fill="none" stroke="#000000" d="M387.7892,-283.7364C390.5926,-280.8065 393.3619,-277.866 396,-275 412.6505,-256.9112 414.9382,-250.7014 432,-233 434.835,-230.0588 437.8308,-227.0653 440.8774,-224.0999"/>
</g>
<!-- plzt -->
<g id="node13" class="node">
<title>plzt</title>
<polygon fill="none" stroke="#000000" points="519,-140 436,-140 436,-74 519,-74 519,-140"/>
<image xlink:href="sushi_hamachi.png" width="50px" height="28px" preserveAspectRatio="xMinYMin meet" x="453" y="-132"/>
<text text-anchor="start" x="448.4995" y="-86.8" font-family="Menlo" font-size="14.00" fill="#000000">PLZT SW</text>
</g>
<!-- tor1&#45;&#45;plzt -->
<g id="edge&#45;&#45;tor1&#45;plzt" class="edge">
<title>tor1&#45;&#45;plzt</title>
<path fill="none" stroke="#000000" d="M390.0312,-283.8145C392.2181,-280.9598 394.2415,-278.0091 396,-275 425.3851,-224.7157 401.467,-198.5957 432,-149 433.8598,-145.979 435.9962,-143.039 438.307,-140.2092"/>
</g>
<!-- tor2&#45;&#45;spine -->
<g id="edge&#45;&#45;tor2&#45;spine" class="edge">
<title>tor2&#45;&#45;spine</title>
<path fill="none" stroke="#000000" d="M396.1422,-247.2193C407.572,-251.1221 420.0269,-255.375 431.6775,-259.3533"/>
</g>
<!-- tor2&#45;&#45;mems -->
<g id="edge&#45;&#45;tor2&#45;mems" class="edge">
<title>tor2&#45;&#45;mems</title>
<path fill="none" stroke="#000000" d="M396.1422,-218.7807C408.9659,-214.4019 423.0799,-209.5825 435.9007,-205.2046"/>
</g>
<!-- tor2&#45;&#45;plzt -->
<g id="edge&#45;&#45;tor2&#45;plzt" class="edge">
<title>tor2&#45;&#45;plzt</title>
<path fill="none" stroke="#000000" d="M387.7892,-199.7364C390.5926,-196.8065 393.3619,-193.866 396,-191 412.6505,-172.9112 414.9382,-166.7014 432,-149 434.835,-146.0588 437.8308,-143.0653 440.8774,-140.0999"/>
</g>
<!-- tor3&#45;&#45;spine -->
<g id="edge&#45;&#45;tor3&#45;spine" class="edge">
<title>tor3&#45;&#45;spine</title>
<path fill="none" stroke="#000000" d="M387.7892,-182.2636C390.5926,-185.1935 393.3619,-188.134 396,-191 412.6505,-209.0888 414.9382,-215.2986 432,-233 434.835,-235.9412 437.8308,-238.9347 440.8774,-241.9001"/>
</g>
<!-- tor3&#45;&#45;mems -->
<g id="edge&#45;&#45;tor3&#45;mems" class="edge">
<title>tor3&#45;&#45;mems</title>
<path fill="none" stroke="#000000" d="M396.1422,-163.2193C408.9659,-167.5981 423.0799,-172.4175 435.9007,-176.7954"/>
</g>
<!-- tor3&#45;&#45;plzt -->
<g id="edge&#45;&#45;tor3&#45;plzt" class="edge">
<title>tor3&#45;&#45;plzt</title>
<path fill="none" stroke="#000000" d="M396.1422,-134.7807C408.9659,-130.4019 423.0799,-125.5825 435.9007,-121.2046"/>
</g>
<!-- tor4&#45;&#45;spine -->
<g id="edge&#45;&#45;tor4&#45;spine" class="edge">
<title>tor4&#45;&#45;spine</title>
<path fill="none" stroke="#000000" d="M390.0312,-98.1855C392.2181,-101.0402 394.2415,-103.9909 396,-107 425.3851,-157.2843 401.467,-183.4043 432,-233 433.8598,-236.021 435.9962,-238.961 438.307,-241.7908"/>
</g>
<!-- tor4&#45;&#45;mems -->
<g id="edge&#45;&#45;tor4&#45;mems" class="edge">
<title>tor4&#45;&#45;mems</title>
<path fill="none" stroke="#000000" d="M387.7892,-98.2636C390.5926,-101.1935 393.3619,-104.134 396,-107 412.6505,-125.0888 414.9382,-131.2986 432,-149 434.835,-151.9412 437.8308,-154.9347 440.8774,-157.9001"/>
</g>
<!-- tor4&#45;&#45;plzt -->
<g id="edge&#45;&#45;tor4&#45;plzt" class="edge">
<title>tor4&#45;&#45;plzt</title>
<path fill="none" stroke="#000000" d="M396.1422,-79.2193C408.9659,-83.5981 423.0799,-88.4175 435.9007,-92.7954"/>
</g>
</g>
</svg>
